<?xml version="1.0" encoding="utf-8"?>
<!-- Generator: Adobe Illustrator 16.0.0, SVG Export Plug-In . SVG Version: 6.00 Build 0)  -->
<!DOCTYPE svg PUBLIC "-//W3C//DTD SVG 1.1//EN" "http://www.w3.org/Graphics/SVG/1.1/DTD/svg11.dtd">
<svg version="1.1" id="Layer_1" xmlns="http://www.w3.org/2000/svg" xmlns:xlink="http://www.w3.org/1999/xlink" x="0px" y="0px"
	 width="66px" height="66px" viewBox="0 0 66 66" enable-background="new 0 0 66 66" xml:space="preserve">
<g>
	<g>
		<path fill="#7C9193" d="M29.605,52.426c-0.137,0.135-0.354,0.135-0.492,0l0,0c-0.133-0.137-0.133-0.357,0-0.492l5.895-5.895
			c0.137-0.133,0.355-0.133,0.492,0l0,0c0.133,0.137,0.133,0.357,0,0.492L29.605,52.426z"/>
		<path fill="#7C9193" d="M47.633,52.426c0.137,0.135,0.355,0.135,0.492,0l0,0c0.135-0.137,0.135-0.357,0-0.492l-5.893-5.895
			c-0.137-0.133-0.355-0.133-0.49,0l0,0c-0.135,0.137-0.135,0.357,0,0.492L47.633,52.426z"/>
	</g>
	<path fill="#990037" d="M30.582,32.641c0,0.881-0.717,1.6-1.602,1.6H5.666c-0.887,0-1.602-0.719-1.602-1.6l0,0
		c0-0.883,0.715-1.602,1.602-1.602H28.98C29.865,31.039,30.582,31.758,30.582,32.641L30.582,32.641z"/>
	<circle fill="#BC043D" cx="39.42" cy="32.639" r="16.076"/>
	<path fill="#990037" d="M55.496,32.639c0,8.881-7.197,16.078-16.076,16.078S23.344,41.52,23.344,32.639"/>
	<path fill="#359CBC" d="M39.881,16.586v16.139h15.611c0-0.029,0.004-0.057,0.004-0.086C55.496,23.916,48.547,16.834,39.881,16.586z
		"/>
	<path fill="#43B9DD" d="M55.492,32.725c0-0.029,0.004-0.057,0.004-0.086c0-8.723-6.949-15.805-15.615-16.053"/>
	<circle fill="#990037" cx="8.357" cy="32.639" r="4.293"/>
	<path fill="#BC043D" d="M4.064,32.639c0-2.371,1.922-4.293,4.293-4.293"/>
	<g>
		<path fill="#7C9193" d="M38.621,57.352c-4.115,0-7.984-1.6-10.893-4.51c-0.395-0.395-0.395-1.035,0-1.428
			c0.395-0.396,1.031-0.396,1.429,0c2.528,2.527,5.888,3.92,9.464,3.92c3.574,0,6.935-1.393,9.465-3.92
			c0.393-0.396,1.033-0.396,1.426,0c0.396,0.393,0.396,1.033,0,1.428C46.604,55.752,42.734,57.352,38.621,57.352z"/>
	</g>
	<path fill="#94A9AA" d="M48.086,51.414c-2.53,2.527-5.891,3.92-9.465,3.92c-3.576,0-6.936-1.393-9.464-3.92
		c-0.397-0.396-1.034-0.396-1.429,0c-0.062,0.061-0.098,0.135-0.141,0.207c0.043,0.072,0.078,0.148,0.141,0.211
		c2.908,2.91,6.777,4.51,10.893,4.51c4.113,0,7.982-1.6,10.891-4.51c0.062-0.062,0.099-0.139,0.139-0.211
		c-0.04-0.072-0.076-0.146-0.139-0.207C49.119,51.018,48.479,51.018,48.086,51.414z"/>
	<g>
		<path fill="#7F0135" d="M40.514,46.023c-3.924,0-7.502-0.07-10.26-0.184c2.602,1.811,5.756,2.877,9.166,2.877
			c3.361,0,6.479-1.035,9.059-2.799C46.141,45.984,43.426,46.023,40.514,46.023z"/>
	</g>
	<path fill="#7F0135" d="M42.451,16.311c0,0.51-0.414,0.926-0.928,0.926h-4.039c-0.512,0-0.928-0.416-0.928-0.926l0,0
		c0-0.514,0.416-0.928,0.928-0.928h4.039C42.037,15.383,42.451,15.797,42.451,16.311L42.451,16.311z"/>
	<path fill="#BC043D" d="M36.557,16.311L36.557,16.311c0-0.514,0.416-0.928,0.928-0.928h4.039c0.514,0,0.928,0.414,0.928,0.928l0,0"
		/>
	<ellipse fill="#77B7C6" cx="39.42" cy="11.258" rx="24.58" ry="2.609"/>
	<path fill="#9BD3DD" d="M14.84,11.258c0-1.439,11.004-2.609,24.58-2.609c13.574,0,24.58,1.17,24.58,2.609"/>
	<circle fill="#BC043D" cx="8.357" cy="32.639" r="1.705"/>
	<circle fill="#157B93" cx="45.86" cy="24.516" r="2.062"/>
	<path fill="#157B93" d="M49.014,32.725c-0.045-3.504-1.439-6.316-3.154-6.316s-3.107,2.812-3.15,6.316H49.014z"/>
	<g>
		<g>
			<path fill="#157B93" d="M5.234,26.709c0.738,0.742,3.238,4.441,2.5,5.18c-0.74,0.74-4.439-1.762-5.18-2.498
				c-0.74-0.74-0.74-1.939,0-2.682C3.295,25.969,4.494,25.969,5.234,26.709z"/>
			<path fill="#157B93" d="M11.484,38.316c-0.74-0.74-3.242-4.439-2.5-5.178c0.738-0.74,4.438,1.762,5.178,2.498
				c0.74,0.74,0.74,1.939,0,2.68S12.221,39.057,11.484,38.316z"/>
		</g>
		<g>
			<path fill="#157B93" d="M14.162,29.389c-0.74,0.738-4.439,3.24-5.178,2.5c-0.742-0.738,1.76-4.438,2.5-5.18
				c0.736-0.74,1.938-0.74,2.678,0C14.902,27.451,14.902,28.65,14.162,29.389z"/>
			<path fill="#157B93" d="M2.555,35.637c0.74-0.736,4.439-3.238,5.18-2.498c0.738,0.738-1.76,4.438-2.5,5.178s-1.939,0.74-2.68,0
				S1.814,36.377,2.555,35.637z"/>
		</g>
	</g>
</g>
</svg>
