<?xml version="1.0" encoding="utf-8"?>
<!-- Generator: Adobe Illustrator 16.0.0, SVG Export Plug-In . SVG Version: 6.00 Build 0)  -->
<!DOCTYPE svg PUBLIC "-//W3C//DTD SVG 1.1//EN" "http://www.w3.org/Graphics/SVG/1.1/DTD/svg11.dtd">
<svg version="1.1" id="Layer_1" xmlns="http://www.w3.org/2000/svg" xmlns:xlink="http://www.w3.org/1999/xlink" x="0px" y="0px"
	 width="66px" height="66px" viewBox="0 0 66 66" enable-background="new 0 0 66 66" xml:space="preserve">
<g>
	<path fill="#155477" d="M63.907,37.966c0-0.229-0.048-0.447-0.113-0.654c2.027-5.11-33.978-16.276-46.19-13.458
		C4.887,26.787,2,26.837,2,32.144c0,0.266,0.693,2.199,0.971,3.311c-0.346,0.899-0.551,1.931-0.551,2.512
		c0,1.184,3.498,2.144,4.682,2.144h54.663C64.682,40.109,63.907,39.15,63.907,37.966z"/>
	<path fill="#203547" d="M63.907,37.966c0-0.229-0.048-0.447-0.113-0.654c2.027-5.11-32.396-15.764-44.605-12.946
		C6.472,27.3,2,26.837,2,32.144c0,0.266,0.693,2.199,0.971,3.311c-0.346,0.899-0.551,1.931-0.551,2.512
		c0,1.184,3.498,2.144,4.682,2.144h54.663C64.682,40.109,63.907,39.15,63.907,37.966z"/>
	<path fill="#122130" d="M63.907,37.966c0-0.229-0.048-0.447-0.113-0.654c0.289-0.727-0.182-1.569-1.201-2.466H2.821
		c0.05,0.202,0.099,0.407,0.149,0.608c-0.346,0.899-0.551,1.931-0.551,2.512c0,1.184,3.498,2.144,4.682,2.144h54.663
		C64.682,40.109,63.907,39.15,63.907,37.966z"/>
	<g>
		<g>
			<g>
				<g>
					<path d="M6.94,37.914c0-2.745,2.227-4.974,4.972-4.974c2.748,0,4.975,2.229,4.975,4.974"/>
				</g>
			</g>
			<g>
				<circle fill="#203547" cx="11.913" cy="38.107" r="4.489"/>
				<path fill="#122130" d="M15.088,34.933c1.754,1.754,1.754,4.596,0,6.349c-1.754,1.752-4.596,1.752-6.348,0"/>
				<circle fill="#CE3F00" cx="11.914" cy="38.107" r="2.824"/>
				<path fill="#B73B04" d="M13.907,36.112c1.104,1.103,1.102,2.889,0,3.992c-1.101,1.101-2.886,1.101-3.991,0"/>
				<circle fill="#474D51" cx="11.913" cy="38.107" r="2.471"/>
				<path fill="#363C3F" d="M13.659,36.36c0.966,0.965,0.966,2.529,0,3.494c-0.967,0.966-2.53,0.965-3.493,0"/>
				<path opacity="0.2" fill="#888F91" d="M13.059,38.107c0,0.634-0.512,1.331-1.146,1.331c-0.631,0-1.147-0.697-1.147-1.331
					s0.517-1.146,1.147-1.146C12.547,36.962,13.059,37.474,13.059,38.107z"/>
				<g>
					<path fill="#666E70" d="M11.912,35.637c-0.113,0-0.221,0.011-0.33,0.026c0.045,0.354,0.176,0.611,0.33,0.611
						c0.156,0,0.288-0.258,0.333-0.611C12.137,35.647,12.026,35.637,11.912,35.637z"/>
					<path fill="#535A5B" d="M11.912,36.274c0.156,0,0.288-0.258,0.333-0.611c-0.108-0.016-0.219-0.026-0.333-0.026"/>
					<path fill="#666E70" d="M11.582,40.547c0.219,0.03,0.442,0.03,0.663,0c-0.047-0.354-0.179-0.605-0.333-0.605
						S11.629,40.192,11.582,40.547z"/>
					<path fill="#535A5B" d="M12.245,40.547c-0.047-0.354-0.179-0.605-0.333-0.605"/>
				</g>
				<g>
					<path fill="#666E70" d="M9.948,36.615c0.285,0.215,0.559,0.305,0.67,0.197c0.106-0.11,0.02-0.383-0.198-0.669
						C10.24,36.278,10.084,36.436,9.948,36.615z"/>
					<path fill="#535A5B" d="M10.618,36.812c0.106-0.11,0.02-0.383-0.198-0.669"/>
					<path fill="#666E70" d="M13.869,39.596c-0.279-0.213-0.551-0.3-0.659-0.192c-0.11,0.11-0.022,0.381,0.19,0.663
						c0.089-0.068,0.182-0.132,0.259-0.212C13.738,39.774,13.802,39.686,13.869,39.596z"/>
					<path fill="#535A5B" d="M13.659,39.854c0.079-0.08,0.143-0.169,0.21-0.259c-0.279-0.213-0.551-0.3-0.659-0.192"/>
				</g>
				<g>
					<path fill="#666E70" d="M9.468,38.44c0.353-0.049,0.612-0.178,0.612-0.333c0-0.153-0.26-0.284-0.612-0.333
						c-0.016,0.111-0.026,0.223-0.026,0.333C9.441,38.221,9.452,38.331,9.468,38.44z"/>
					<path fill="#535A5B" d="M10.08,38.107c0-0.153-0.26-0.284-0.612-0.333c-0.016,0.111-0.026,0.223-0.026,0.333"/>
					<path fill="#666E70" d="M13.744,38.107c0,0.153,0.256,0.284,0.608,0.331c0.03-0.22,0.03-0.439,0-0.661
						C14,37.826,13.744,37.954,13.744,38.107z"/>
					<path fill="#535A5B" d="M14.353,37.777c-0.353,0.049-0.608,0.177-0.608,0.33"/>
				</g>
				<g>
					<path fill="#666E70" d="M9.949,39.602c0.135,0.179,0.291,0.336,0.471,0.47c0.218-0.284,0.305-0.558,0.198-0.668
						C10.507,39.296,10.233,39.385,9.949,39.602z"/>
					<path fill="#535A5B" d="M10.42,40.071c0.218-0.284,0.305-0.558,0.198-0.668"/>
					<path fill="#666E70" d="M13.407,36.144c-0.219,0.286-0.308,0.559-0.197,0.669c0.108,0.107,0.383,0.018,0.666-0.197
						C13.742,36.436,13.586,36.278,13.407,36.144z"/>
					<path fill="#535A5B" d="M13.407,36.144c-0.219,0.286-0.308,0.559-0.197,0.669"/>
				</g>
			</g>
		</g>
		<g>
			<g>
				<g>
					<path d="M48.483,38.252c0-2.548,2.066-4.617,4.616-4.617c2.549,0,4.616,2.069,4.616,4.617"/>
				</g>
			</g>
			<g>
				<circle fill="#203547" cx="53.101" cy="38.432" r="4.165"/>
				<path fill="#122130" d="M56.044,35.485c1.628,1.627,1.628,4.264,0,5.892c-1.628,1.625-4.263,1.625-5.889,0"/>
				<circle fill="#CE3F00" cx="53.1" cy="38.432" r="2.619"/>
				<path fill="#B73B04" d="M54.95,36.58c1.025,1.022,1.023,2.68,0,3.703c-1.022,1.022-2.68,1.022-3.702,0"/>
				<circle fill="#474D51" cx="53.1" cy="38.432" r="2.292"/>
				<path fill="#363C3F" d="M54.721,36.809c0.895,0.897,0.895,2.35,0,3.242c-0.896,0.896-2.348,0.896-3.244,0"/>
				<path opacity="0.2" fill="#888F91" d="M54.165,38.432c0,0.587-0.479,1.234-1.065,1.234s-1.064-0.647-1.064-1.234
					c0-0.589,0.478-1.063,1.064-1.063S54.165,37.843,54.165,38.432z"/>
				<g>
					<path fill="#666E70" d="M53.1,36.138c-0.105,0-0.207,0.011-0.308,0.025c0.043,0.327,0.163,0.566,0.308,0.566
						c0.146,0,0.264-0.239,0.309-0.566C53.308,36.148,53.205,36.138,53.1,36.138z"/>
					<path fill="#535A5B" d="M53.1,36.729c0.146,0,0.264-0.239,0.309-0.566c-0.101-0.015-0.203-0.025-0.309-0.025"/>
					<path fill="#666E70" d="M52.792,40.694c0.205,0.027,0.411,0.027,0.616,0c-0.047-0.328-0.166-0.562-0.309-0.562
						C52.955,40.132,52.835,40.366,52.792,40.694z"/>
					<path fill="#535A5B" d="M53.408,40.694c-0.047-0.328-0.166-0.562-0.309-0.562"/>
				</g>
				<g>
					<path fill="#666E70" d="M51.274,37.046c0.267,0.2,0.521,0.282,0.622,0.184c0.102-0.103,0.02-0.356-0.185-0.62
						C51.548,36.734,51.403,36.879,51.274,37.046z"/>
					<path fill="#535A5B" d="M51.896,37.229c0.102-0.103,0.02-0.356-0.185-0.62"/>
					<path fill="#666E70" d="M54.914,39.812c-0.262-0.197-0.51-0.278-0.61-0.178c-0.104,0.1-0.022,0.352,0.175,0.613
						c0.085-0.063,0.169-0.121,0.242-0.197C54.794,39.977,54.854,39.896,54.914,39.812z"/>
					<path fill="#535A5B" d="M54.721,40.051c0.073-0.074,0.133-0.155,0.193-0.238c-0.262-0.197-0.51-0.278-0.61-0.178"/>
				</g>
				<g>
					<path fill="#666E70" d="M50.829,38.739c0.33-0.045,0.567-0.164,0.567-0.308c0.002-0.144-0.237-0.265-0.567-0.309
						c-0.012,0.102-0.021,0.206-0.021,0.309C50.808,38.536,50.817,38.639,50.829,38.739z"/>
					<path fill="#535A5B" d="M51.396,38.432c0.002-0.144-0.237-0.265-0.567-0.309c-0.012,0.102-0.021,0.206-0.021,0.309"/>
					<path fill="#666E70" d="M54.801,38.432c0,0.142,0.234,0.263,0.562,0.306c0.027-0.204,0.027-0.407,0.003-0.612
						C55.035,38.169,54.801,38.288,54.801,38.432z"/>
					<path fill="#535A5B" d="M55.365,38.125c-0.33,0.044-0.564,0.163-0.564,0.307"/>
				</g>
				<g>
					<path fill="#666E70" d="M51.276,39.818c0.127,0.165,0.271,0.309,0.436,0.436c0.204-0.265,0.286-0.52,0.185-0.619
						C51.795,39.534,51.544,39.615,51.276,39.818z"/>
					<path fill="#535A5B" d="M51.712,40.254c0.204-0.265,0.286-0.52,0.185-0.619"/>
					<path fill="#666E70" d="M54.486,36.609c-0.202,0.264-0.286,0.518-0.183,0.62c0.101,0.099,0.354,0.017,0.618-0.184
						C54.799,36.879,54.649,36.734,54.486,36.609z"/>
					<path fill="#535A5B" d="M54.486,36.609c-0.202,0.264-0.286,0.518-0.183,0.62"/>
				</g>
			</g>
		</g>
	</g>
	<path fill="#677682" d="M10.492,28.582c0.035,0.105-0.017,0.221-0.125,0.258l0,0c-0.104,0.037-0.221-0.019-0.258-0.124
		l-0.651-1.859c-0.037-0.105,0.019-0.222,0.123-0.257l0,0c0.106-0.039,0.222,0.018,0.259,0.123L10.492,28.582z"/>
	<path fill="#677682" d="M11.609,28.372c0.038,0.105-0.016,0.221-0.125,0.258l0,0c-0.104,0.038-0.22-0.018-0.256-0.124l-0.654-1.858
		c-0.036-0.106,0.02-0.222,0.124-0.258l0,0c0.108-0.038,0.223,0.018,0.26,0.124L11.609,28.372z"/>
	<path fill="#677682" d="M12.727,28.163c0.038,0.105-0.016,0.22-0.123,0.258l0,0c-0.104,0.037-0.221-0.018-0.259-0.124l-0.651-1.859
		c-0.037-0.106,0.02-0.222,0.124-0.258l0,0c0.106-0.037,0.221,0.018,0.259,0.125L12.727,28.163z"/>
	<path fill="#677682" d="M13.845,27.953c0.038,0.105-0.015,0.22-0.124,0.259l0,0c-0.104,0.037-0.221-0.019-0.257-0.125l-0.652-1.859
		c-0.038-0.105,0.019-0.222,0.123-0.258l0,0c0.108-0.038,0.223,0.019,0.259,0.125L13.845,27.953z"/>
	<path fill="#155477" d="M36.9,25.391H26.081l12.439,5.123H54.51C49.49,28.512,43.091,26.632,36.9,25.391z"/>
	<path d="M36.9,25.391H26.081l14.628,5.123H54.51C49.49,28.512,43.091,26.632,36.9,25.391z"/>
	<path fill="#CE3F00" d="M4.721,34.441l-2.697-2.697C2.017,31.879,2,32.001,2,32.144c0,0.266,0.693,2.199,0.971,3.311
		c-0.135,0.348-0.238,0.71-0.326,1.064L4.721,34.441z"/>
	<path fill="#B73B04" d="M2.971,35.454c-0.135,0.348-0.238,0.71-0.326,1.064l2.076-2.077"/>
	<path fill="#1CACC4" d="M61.451,33.962h-3.507l4.39,0.979h0.364C62.35,34.62,61.943,34.295,61.451,33.962z"/>
	<polygon fill="#155477" points="35.75,34.218 29.948,30.024 15.555,28.977 30.647,28.977 	"/>
</g>
</svg>
