<svg xmlns="http://www.w3.org/2000/svg" width="66" height="66"><path fill="#155477" d="M63.907 37.966c0-.229-.048-.447-.113-.654 2.027-5.11-33.978-16.276-46.19-13.458C4.887 26.787 2 26.837 2 32.144c0 .266.693 2.199.971 3.311-.346.899-.551 1.931-.551 2.512 0 1.184 3.498 2.144 4.682 2.144h54.663c2.917-.002 2.142-.961 2.142-2.145z"/><path fill="#203547" d="M63.907 37.966c0-.229-.048-.447-.113-.654 2.027-5.11-32.396-15.764-44.605-12.946C6.472 27.3 2 26.837 2 32.144c0 .266.693 2.199.971 3.311-.346.899-.551 1.931-.551 2.512 0 1.184 3.498 2.144 4.682 2.144h54.663c2.917-.002 2.142-.961 2.142-2.145z"/><path fill="#122130" d="M63.907 37.966c0-.229-.048-.447-.113-.654.289-.727-.182-1.569-1.201-2.466H2.821l.149.608c-.346.899-.551 1.931-.551 2.512 0 1.184 3.498 2.144 4.682 2.144h54.663c2.918-.001 2.143-.96 2.143-2.144z"/><path d="M6.94 37.914a4.975 4.975 0 0 1 4.972-4.974 4.976 4.976 0 0 1 4.975 4.974"/><circle cx="11.913" cy="38.107" r="4.489" fill="#203547"/><path fill="#122130" d="M15.088 34.933a4.488 4.488 0 0 1 0 6.349 4.49 4.49 0 0 1-6.348 0"/><circle cx="11.914" cy="38.107" r="2.824" fill="#CE3F00"/><path fill="#B73B04" d="M13.907 36.112a2.822 2.822 0 1 1-3.991 3.992"/><circle cx="11.913" cy="38.107" r="2.471" fill="#474D51"/><path fill="#363C3F" d="M13.659 36.36a2.469 2.469 0 0 1 0 3.494 2.468 2.468 0 0 1-3.493 0"/><path fill="#888F91" d="M13.059 38.107c0 .634-.512 1.331-1.146 1.331-.631 0-1.147-.697-1.147-1.331s.517-1.146 1.147-1.146a1.146 1.146 0 0 1 1.146 1.146z" opacity=".2"/><path fill="#666E70" d="M11.912 35.637c-.113 0-.221.011-.33.026.045.354.176.611.33.611.156 0 .288-.258.333-.611a2.268 2.268 0 0 0-.333-.026z"/><path fill="#535A5B" d="M11.912 36.274c.156 0 .288-.258.333-.611a2.268 2.268 0 0 0-.333-.026"/><path fill="#666E70" d="M11.582 40.547c.219.03.442.03.663 0-.047-.354-.179-.605-.333-.605s-.283.25-.33.605z"/><path fill="#535A5B" d="M12.245 40.547c-.047-.354-.179-.605-.333-.605"/><g><path fill="#666E70" d="M9.948 36.615c.285.215.559.305.67.197.106-.11.02-.383-.198-.669-.18.135-.336.293-.472.472z"/><path fill="#535A5B" d="M10.618 36.812c.106-.11.02-.383-.198-.669"/><path fill="#666E70" d="M13.869 39.596c-.279-.213-.551-.3-.659-.192-.11.11-.022.381.19.663.089-.068.182-.132.259-.212.079-.081.143-.169.21-.259z"/><path fill="#535A5B" d="M13.659 39.854c.079-.08.143-.169.21-.259-.279-.213-.551-.3-.659-.192"/></g><g><path fill="#666E70" d="M9.468 38.44c.353-.049.612-.178.612-.333 0-.153-.26-.284-.612-.333a2.148 2.148 0 0 0 0 .666z"/><path fill="#535A5B" d="M10.08 38.107c0-.153-.26-.284-.612-.333a2.346 2.346 0 0 0-.026.333"/><path fill="#666E70" d="M13.744 38.107c0 .153.256.284.608.331.03-.22.03-.439 0-.661-.352.049-.608.177-.608.33z"/><path fill="#535A5B" d="M14.353 37.777c-.353.049-.608.177-.608.33"/></g><g><path fill="#666E70" d="M9.949 39.602c.135.179.291.336.471.47.218-.284.305-.558.198-.668-.111-.108-.385-.019-.669.198z"/><path fill="#535A5B" d="M10.42 40.071c.218-.284.305-.558.198-.668"/><path fill="#666E70" d="M13.407 36.144c-.219.286-.308.559-.197.669.108.107.383.018.666-.197a2.306 2.306 0 0 0-.469-.472z"/><path fill="#535A5B" d="M13.407 36.144c-.219.286-.308.559-.197.669"/></g><g><path d="M48.483 38.252a4.617 4.617 0 0 1 4.616-4.617 4.618 4.618 0 0 1 4.616 4.617"/><circle cx="53.101" cy="38.432" r="4.165" fill="#203547"/><path fill="#122130" d="M56.044 35.485a4.165 4.165 0 1 1-5.889 5.892"/><circle cx="53.1" cy="38.432" r="2.619" fill="#CE3F00"/><path fill="#B73B04" d="M54.95 36.58a2.618 2.618 0 0 1-3.702 3.703"/><circle cx="53.1" cy="38.432" r="2.292" fill="#474D51"/><path fill="#363C3F" d="M54.721 36.809a2.293 2.293 0 1 1-3.244 3.242"/><path fill="#888F91" d="M54.165 38.432c0 .587-.479 1.234-1.065 1.234s-1.064-.647-1.064-1.234a1.063 1.063 0 0 1 2.129 0z" opacity=".2"/><path fill="#666E70" d="M53.1 36.138c-.105 0-.207.011-.308.025.043.327.163.566.308.566.146 0 .264-.239.309-.566a2.1 2.1 0 0 0-.309-.025z"/><path fill="#535A5B" d="M53.1 36.729c.146 0 .264-.239.309-.566a2.09 2.09 0 0 0-.309-.025"/><path fill="#666E70" d="M52.792 40.694c.205.027.411.027.616 0-.047-.328-.166-.562-.309-.562-.144 0-.264.234-.307.562z"/><path fill="#535A5B" d="M53.408 40.694c-.047-.328-.166-.562-.309-.562"/><g><path fill="#666E70" d="M51.274 37.046c.267.2.521.282.622.184.102-.103.02-.356-.185-.62a2.343 2.343 0 0 0-.437.436z"/><path fill="#535A5B" d="M51.896 37.229c.102-.103.02-.356-.185-.62"/><path fill="#666E70" d="M54.914 39.812c-.262-.197-.51-.278-.61-.178-.104.1-.022.352.175.613.085-.063.169-.121.242-.197.073-.073.133-.154.193-.238z"/><path fill="#535A5B" d="M54.721 40.051c.073-.074.133-.155.193-.238-.262-.197-.51-.278-.61-.178"/></g><g><path fill="#666E70" d="M50.829 38.739c.33-.045.567-.164.567-.308.002-.144-.237-.265-.567-.309a2.658 2.658 0 0 0-.021.309c0 .105.009.208.021.308z"/><path fill="#535A5B" d="M51.396 38.432c.002-.144-.237-.265-.567-.309a2.658 2.658 0 0 0-.021.309"/><path fill="#666E70" d="M54.801 38.432c0 .142.234.263.562.306.027-.204.027-.407.003-.612-.331.043-.565.162-.565.306z"/><path fill="#535A5B" d="M55.365 38.125c-.33.044-.564.163-.564.307"/></g><g><path fill="#666E70" d="M51.276 39.818c.127.165.271.309.436.436.204-.265.286-.52.185-.619-.102-.101-.353-.02-.621.183z"/><path fill="#535A5B" d="M51.712 40.254c.204-.265.286-.52.185-.619"/><path fill="#666E70" d="M54.486 36.609c-.202.264-.286.518-.183.62.101.099.354.017.618-.184a2.192 2.192 0 0 0-.435-.436z"/><path fill="#535A5B" d="M54.486 36.609c-.202.264-.286.518-.183.62"/></g></g><path fill="#677682" d="M10.492 28.582a.203.203 0 0 1-.125.258.203.203 0 0 1-.258-.124l-.651-1.859a.201.201 0 0 1 .123-.257.202.202 0 0 1 .259.123l.652 1.859zM11.609 28.372a.2.2 0 0 1-.125.258.2.2 0 0 1-.256-.124l-.654-1.858a.204.204 0 0 1 .124-.258.202.202 0 0 1 .26.124l.651 1.858zM12.727 28.163a.2.2 0 0 1-.123.258.204.204 0 0 1-.259-.124l-.651-1.859a.203.203 0 0 1 .383-.133l.65 1.858zM13.845 27.953a.202.202 0 1 1-.381.134l-.652-1.859a.202.202 0 0 1 .123-.258.201.201 0 0 1 .259.125l.651 1.858z"/><path fill="#155477" d="M36.9 25.391H26.081l12.439 5.123h15.99c-5.02-2.002-11.419-3.882-17.61-5.123z"/><path d="M36.9 25.391H26.081l14.628 5.123H54.51c-5.02-2.002-11.419-3.882-17.61-5.123z"/><path fill="#CE3F00" d="M4.721 34.441l-2.697-2.697c-.007.135-.024.257-.024.4 0 .266.693 2.199.971 3.311-.135.348-.238.71-.326 1.064l2.076-2.078z"/><path fill="#B73B04" d="M2.971 35.454c-.135.348-.238.71-.326 1.064l2.076-2.077"/><path fill="#1CACC4" d="M61.451 33.962h-3.507l4.39.979h.364a10.521 10.521 0 0 0-1.247-.979z"/><path fill="#155477" d="M35.75 34.218l-5.802-4.194-14.393-1.047h15.092z"/></svg>