<?xml version="1.0" encoding="utf-8"?>
<!-- Generator: Adobe Illustrator 16.0.0, SVG Export Plug-In . SVG Version: 6.00 Build 0)  -->
<!DOCTYPE svg PUBLIC "-//W3C//DTD SVG 1.1//EN" "http://www.w3.org/Graphics/SVG/1.1/DTD/svg11.dtd">
<svg version="1.1" id="Layer_1" xmlns="http://www.w3.org/2000/svg" xmlns:xlink="http://www.w3.org/1999/xlink" x="0px" y="0px"
	 width="66px" height="66px" viewBox="0 0 66 66" enable-background="new 0 0 66 66" xml:space="preserve">
<g>
	<path fill="#445066" d="M45.336,21.152c0.622,0.621,0.622,1.628,0,2.249l0,0c-0.621,0.621-1.627,0.621-2.248,0L42.6,22.913
		c-0.622-0.622-0.622-1.629-0.001-2.249l0,0c0.62-0.621,1.628-0.621,2.249,0L45.336,21.152z"/>
	<path fill="#3E5260" d="M63.449,48.065c1.922,1.921,2.079,4.88,0.35,6.608L54.674,63.8c-1.729,1.729-4.688,1.571-6.607-0.35
		L2.551,17.934c-1.922-1.922-2.079-4.881-0.352-6.607l9.127-9.127c1.727-1.729,4.686-1.57,6.607,0.352L63.449,48.065z"/>
	<path fill="#324554" d="M2.199,11.326l9.127-9.127c1.727-1.729,4.686-1.57,6.607,0.352l45.516,45.515
		c1.922,1.921,2.079,4.88,0.35,6.608L54.674,63.8"/>
	<g>
		<g>
			<g>
				<g>
					<path fill="#142133" d="M3.52,14.178c-0.107,0.108-0.283,0.108-0.39,0l-0.783-0.782c-0.107-0.108-0.108-0.283,0-0.391
						c0.106-0.108,0.284-0.108,0.39,0l0.783,0.782C3.628,13.895,3.628,14.07,3.52,14.178z"/>
				</g>
				<g>
					<path fill="#142133" d="M15.08,25.738c-0.108,0.107-0.283,0.106-0.392,0l-1.445-1.445c-0.108-0.107-0.108-0.283,0-0.392
						c0.108-0.106,0.284-0.106,0.392,0l1.445,1.445C15.188,25.454,15.188,25.631,15.08,25.738z M12.19,22.849
						c-0.108,0.108-0.284,0.108-0.392,0l-1.445-1.446c-0.107-0.107-0.108-0.282,0-0.391c0.107-0.108,0.283-0.108,0.391,0
						l1.446,1.445C12.297,22.565,12.297,22.74,12.19,22.849z M9.299,19.959c-0.105,0.107-0.281,0.106-0.39,0l-1.445-1.446
						c-0.108-0.106-0.108-0.283,0-0.391c0.106-0.107,0.283-0.107,0.39,0l1.445,1.445C9.408,19.675,9.408,19.852,9.299,19.959z
						 M6.41,17.068c-0.107,0.108-0.284,0.108-0.391,0l-1.445-1.445c-0.107-0.107-0.108-0.283,0-0.391
						c0.106-0.107,0.284-0.107,0.391,0l1.445,1.445C6.518,16.785,6.518,16.961,6.41,17.068z"/>
				</g>
				<g>
					<path fill="#142133" d="M17.307,27.965c-0.108,0.107-0.283,0.107-0.392,0l-0.782-0.782c-0.105-0.108-0.107-0.283,0-0.392
						c0.107-0.107,0.284-0.107,0.392,0l0.782,0.782C17.414,27.682,17.413,27.856,17.307,27.965z"/>
				</g>
			</g>
			<g>
				<g>
					<path fill="#142133" d="M14.178,3.521c-0.107,0.108-0.284,0.107-0.391,0l-0.783-0.783c-0.107-0.107-0.107-0.283,0-0.391
						s0.283-0.107,0.391,0l0.783,0.783C14.285,3.236,14.285,3.412,14.178,3.521z"/>
				</g>
				<g>
					<path fill="#142133" d="M25.738,15.082c-0.108,0.105-0.285,0.105-0.392,0l-1.444-1.446c-0.108-0.108-0.108-0.284,0-0.392
						c0.106-0.107,0.281-0.107,0.391,0l1.445,1.445C25.845,14.797,25.845,14.973,25.738,15.082z M22.848,12.19
						c-0.107,0.107-0.283,0.107-0.392,0l-1.445-1.446c-0.108-0.106-0.108-0.282,0-0.391c0.108-0.107,0.284-0.107,0.392,0
						l1.445,1.445C22.955,11.907,22.955,12.084,22.848,12.19z M19.959,9.301c-0.108,0.107-0.284,0.107-0.391,0l-1.446-1.445
						c-0.108-0.107-0.108-0.284,0-0.391c0.106-0.108,0.283-0.108,0.391,0l1.446,1.445C20.065,9.018,20.065,9.193,19.959,9.301z
						 M17.068,6.41c-0.107,0.108-0.284,0.108-0.392,0l-1.445-1.445c-0.107-0.106-0.107-0.283,0-0.391s0.284-0.107,0.391,0
						l1.446,1.445C17.176,6.127,17.176,6.304,17.068,6.41z"/>
				</g>
				<g>
					<path fill="#142133" d="M27.964,17.307c-0.107,0.107-0.283,0.107-0.392,0l-0.782-0.782c-0.106-0.106-0.106-0.283,0-0.392
						c0.108-0.106,0.284-0.106,0.392,0l0.782,0.783C28.07,17.023,28.07,17.199,27.964,17.307z"/>
				</g>
			</g>
		</g>
		<g>
			<g>
				<g>
					<path fill="#142133" d="M39.21,49.867c-0.108,0.107-0.284,0.107-0.392,0l-0.782-0.782c-0.107-0.108-0.108-0.283-0.001-0.392
						c0.107-0.107,0.285-0.107,0.393,0l0.782,0.782C39.316,49.584,39.316,49.76,39.21,49.867z"/>
				</g>
				<g>
					<path fill="#142133" d="M50.768,61.427c-0.106,0.108-0.281,0.107-0.39,0l-1.446-1.445c-0.107-0.106-0.107-0.283,0-0.391
						c0.108-0.107,0.283-0.107,0.392,0l1.444,1.445C50.877,61.143,50.877,61.32,50.768,61.427z M47.879,58.537
						c-0.107,0.108-0.284,0.108-0.391,0l-1.445-1.445c-0.107-0.108-0.108-0.283,0-0.391c0.106-0.108,0.283-0.108,0.391,0
						l1.445,1.445C47.986,58.254,47.986,58.43,47.879,58.537z M44.989,55.647c-0.108,0.108-0.283,0.107-0.392,0l-1.445-1.445
						c-0.107-0.107-0.107-0.283,0-0.392c0.108-0.106,0.283-0.106,0.392,0l1.445,1.446C45.098,55.363,45.098,55.541,44.989,55.647z
						 M42.1,52.758c-0.108,0.107-0.284,0.107-0.392,0l-1.445-1.445c-0.106-0.108-0.107-0.283,0-0.392
						c0.106-0.107,0.284-0.107,0.392,0l1.445,1.445C42.206,52.475,42.206,52.649,42.1,52.758z"/>
				</g>
				<g>
					<path fill="#142133" d="M52.995,63.653c-0.108,0.108-0.283,0.108-0.392,0l-0.781-0.782c-0.107-0.107-0.108-0.282,0-0.391
						c0.106-0.108,0.284-0.108,0.391,0l0.782,0.782C53.104,63.371,53.103,63.546,52.995,63.653z"/>
				</g>
			</g>
			<g>
				<g>
					<path fill="#142133" d="M49.867,39.21c-0.108,0.107-0.285,0.106-0.392,0l-0.782-0.782c-0.107-0.108-0.107-0.284,0-0.393
						c0.107-0.106,0.283-0.106,0.392,0.001l0.782,0.782C49.974,38.926,49.975,39.102,49.867,39.21z"/>
				</g>
				<g>
					<path fill="#142133" d="M61.427,50.77c-0.106,0.107-0.284,0.107-0.391,0l-1.445-1.445c-0.108-0.107-0.108-0.283,0-0.391
						c0.106-0.108,0.283-0.108,0.391,0l1.445,1.445C61.533,50.485,61.533,50.662,61.427,50.77z M58.536,47.879
						c-0.106,0.108-0.283,0.108-0.391,0L56.7,46.434c-0.107-0.107-0.107-0.283,0-0.391s0.284-0.107,0.391,0l1.445,1.445
						C58.645,47.596,58.645,47.772,58.536,47.879z M55.647,44.99c-0.108,0.107-0.284,0.107-0.391,0l-1.446-1.445
						c-0.107-0.108-0.107-0.284,0-0.392s0.283-0.107,0.391,0l1.446,1.446C55.754,44.707,55.754,44.882,55.647,44.99z M52.757,42.1
						c-0.107,0.107-0.283,0.107-0.392,0l-1.445-1.445c-0.106-0.107-0.106-0.283,0-0.392c0.108-0.106,0.283-0.106,0.392,0
						l1.445,1.446C52.864,41.816,52.864,41.992,52.757,42.1z"/>
				</g>
				<g>
					<path fill="#142133" d="M63.652,52.995c-0.106,0.108-0.283,0.108-0.391,0l-0.782-0.782c-0.107-0.106-0.107-0.283,0-0.391
						c0.108-0.107,0.284-0.107,0.39,0l0.783,0.782C63.761,52.712,63.761,52.889,63.652,52.995z"/>
				</g>
			</g>
		</g>
	</g>
	<path fill="#324554" d="M44.048,21.951c6.104,6.102,6.104,15.996,0.002,22.098c-6.104,6.104-15.999,6.104-22.101,0
		c-6.101-6.102-6.101-15.996,0-22.098C28.051,15.85,37.946,15.85,44.048,21.951z"/>
	<path fill="#142133" d="M21.949,21.951c6.102-6.102,15.997-6.102,22.099,0c6.104,6.102,6.104,15.996,0.002,22.098"/>
	<circle fill="#142133" cx="33" cy="33" r="12.262"/>
	<path fill="#1B3049" d="M24.329,24.33c4.788-4.787,12.553-4.787,17.341,0c4.788,4.788,4.788,12.553,0,17.341"/>
	<path fill="#324554" d="M45.729,22.325c1.024,1.026,2.688,1.026,3.715,0l0,0c1.025-1.026,1.025-2.689,0-3.715l-2.054-2.054
		c-1.026-1.026-2.69-1.026-3.715,0l0,0c-1.026,1.027-1.026,2.689,0,3.716L45.729,22.325z"/>
	<path fill="#142133" d="M43.675,16.557L43.675,16.557c-1.026,1.027-1.026,2.689,0,3.716l2.054,2.053
		c1.024,1.026,2.688,1.026,3.715,0l0,0"/>
	<g>
		<g>
			<path fill="#6B7D96" d="M27.54,27.279c0.071,0.071,0.072,0.189,0,0.262l0,0c-0.071,0.071-0.188,0.071-0.262,0l-1.759-1.76
				c-0.072-0.072-0.072-0.189,0-0.262l0,0c0.071-0.071,0.188-0.072,0.262,0.001L27.54,27.279z"/>
			<path fill="#6B7D96" d="M40.48,40.22c0.07,0.071,0.07,0.188,0,0.26l0,0c-0.073,0.073-0.189,0.073-0.262,0.002l-1.759-1.76
				c-0.073-0.073-0.073-0.189,0-0.262l0,0c0.071-0.071,0.188-0.072,0.262,0.001L40.48,40.22z"/>
		</g>
		<g>
			<path fill="#6B7D96" d="M33.184,25.096c0,0.102-0.082,0.185-0.186,0.185l0,0c-0.1,0-0.184-0.083-0.184-0.185v-2.489
				c0.001-0.102,0.083-0.184,0.186-0.185l0,0c0.1,0.001,0.184,0.083,0.184,0.186V25.096z"/>
			<path fill="#6B7D96" d="M33.184,43.395c0,0.102-0.084,0.185-0.184,0.184l0,0c-0.103,0.001-0.185-0.082-0.186-0.184l0.001-2.488
				c-0.001-0.103,0.082-0.185,0.185-0.185l0,0c0.1,0,0.184,0.082,0.184,0.185V43.395z"/>
		</g>
		<g>
			<path fill="#6B7D96" d="M38.721,27.541c-0.073,0.072-0.19,0.072-0.263,0l0,0c-0.071-0.071-0.071-0.188,0-0.262l1.761-1.759
				c0.072-0.072,0.188-0.072,0.262-0.001l0,0c0.07,0.072,0.07,0.19-0.002,0.263L38.721,27.541z"/>
			<path fill="#6B7D96" d="M25.779,40.481c-0.071,0.071-0.188,0.071-0.26-0.002l0,0c-0.072-0.071-0.072-0.188-0.002-0.26
				l1.761-1.759c0.071-0.073,0.188-0.072,0.261,0l0,0c0.072,0.071,0.072,0.188,0,0.262L25.779,40.481z"/>
		</g>
		<g>
			<path fill="#6B7D96" d="M40.905,33.185c-0.104,0.001-0.187-0.082-0.187-0.185l0,0c0-0.101,0.084-0.183,0.184-0.185l2.49,0.001
				c0.103,0,0.185,0.083,0.186,0.184l0,0c-0.001,0.103-0.084,0.186-0.187,0.186L40.905,33.185z"/>
			<path fill="#6B7D96" d="M22.605,33.184c-0.104,0.001-0.186-0.081-0.184-0.184l0,0c-0.002-0.101,0.082-0.184,0.184-0.186
				l2.487,0.002c0.102-0.001,0.185,0.082,0.186,0.185l0,0c0,0.101-0.084,0.184-0.186,0.185L22.605,33.184z"/>
		</g>
	</g>
	<g>
		<g>
			<path fill="#142133" d="M12.774,10.332c0.438,0.437,0.438,1.144,0.003,1.58l-0.864,0.863c-0.438,0.437-1.146,0.438-1.582,0
				l-0.862-0.861c-0.437-0.438-0.437-1.146,0-1.582l0.864-0.864c0.437-0.437,1.143-0.435,1.58,0.002L12.774,10.332z"/>
			<path fill="#142133" d="M18.25,15.807c0.438,0.437,0.439,1.145,0.002,1.582l-0.862,0.862c-0.438,0.438-1.146,0.438-1.584,0.001
				l-0.86-0.862c-0.438-0.437-0.438-1.146,0-1.583l0.862-0.863c0.437-0.437,1.145-0.435,1.582,0.001L18.25,15.807z"/>
		</g>
		<g>
			<path fill="#142133" d="M51.055,48.611c0.438,0.437,0.439,1.145,0.002,1.582l-0.862,0.861c-0.438,0.438-1.146,0.438-1.583,0.002
				l-0.862-0.862c-0.438-0.437-0.438-1.146,0-1.583l0.863-0.863c0.437-0.437,1.145-0.436,1.582,0.002L51.055,48.611z"/>
			<path fill="#142133" d="M56.531,54.087c0.436,0.438,0.438,1.145,0.001,1.581l-0.863,0.863c-0.437,0.438-1.146,0.438-1.583,0
				l-0.861-0.861c-0.438-0.438-0.438-1.146,0.001-1.583l0.862-0.862c0.438-0.438,1.145-0.437,1.581,0.001L56.531,54.087z"/>
		</g>
	</g>
	<g>
		<polygon fill="#ED660A" points="32.998,30.45 41.399,33.001 32.998,35.551 24.6,33.001 		"/>
		<polyline fill="#EA2B0C" points="24.6,33.001 32.998,30.45 41.399,33.001 		"/>
	</g>
</g>
</svg>
