<?xml version="1.0" encoding="utf-8"?>
<!-- Generator: Adobe Illustrator 16.0.0, SVG Export Plug-In . SVG Version: 6.00 Build 0)  -->
<!DOCTYPE svg PUBLIC "-//W3C//DTD SVG 1.1//EN" "http://www.w3.org/Graphics/SVG/1.1/DTD/svg11.dtd">
<svg version="1.1" id="Layer_1" xmlns="http://www.w3.org/2000/svg" xmlns:xlink="http://www.w3.org/1999/xlink" x="0px" y="0px"
	 width="66px" height="66px" viewBox="0 0 66 66" enable-background="new 0 0 66 66" xml:space="preserve">
<g>
	<g>
		<g>
			<path fill="#1BCEB8" d="M20.896,62.5c0,0.828-0.671,1.5-1.5,1.5l0,0c-0.828,0-1.5-0.672-1.5-1.5v-59c0-0.828,0.672-1.5,1.5-1.5
				l0,0c0.829,0,1.5,0.672,1.5,1.5V62.5z"/>
			<path fill="#0DBFBA" d="M19.217,2L19.217,2c0.867,0,1.679,0.701,1.679,1.568V62.43c0,0.867-0.757,1.57-1.624,1.57l0,0"/>
		</g>
		<g>
			<path fill="#1BCEB8" d="M27.896,62.5c0,0.828-0.671,1.5-1.5,1.5l0,0c-0.828,0-1.5-0.672-1.5-1.5v-59c0-0.828,0.672-1.5,1.5-1.5
				l0,0c0.829,0,1.5,0.672,1.5,1.5V62.5z"/>
			<path fill="#0DBFBA" d="M26.165,2L26.165,2c0.866,0,1.73,0.701,1.73,1.568V62.43c0,0.867-0.784,1.57-1.65,1.57l0,0"/>
		</g>
		<g>
			<path fill="#1BCEB8" d="M40.896,62.5c0,0.828-0.671,1.5-1.5,1.5l0,0c-0.828,0-1.5-0.672-1.5-1.5v-59c0-0.828,0.672-1.5,1.5-1.5
				l0,0c0.829,0,1.5,0.672,1.5,1.5V62.5z"/>
		</g>
		<g>
			<path fill="#1BCEB8" d="M47.896,62.5c0,0.828-0.671,1.5-1.5,1.5l0,0c-0.828,0-1.5-0.672-1.5-1.5v-59c0-0.828,0.672-1.5,1.5-1.5
				l0,0c0.829,0,1.5,0.672,1.5,1.5V62.5z"/>
			<path fill="#0DBFBA" d="M46.504,2L46.504,2c0.866,0,1.392,0.701,1.392,1.568V62.43c0,0.867-0.614,1.57-1.48,1.57l0,0"/>
			<path fill="#0DBFBA" d="M39.504,2L39.504,2c0.866,0,1.392,0.701,1.392,1.568V62.43c0,0.867-0.614,1.57-1.48,1.57l0,0"/>
			<g>
				<path fill="#1BCEB8" d="M34.896,62.5c0,0.828-0.671,1.5-1.5,1.5l0,0c-0.828,0-1.5-0.672-1.5-1.5v-59c0-0.828,0.672-1.5,1.5-1.5
					l0,0c0.829,0,1.5,0.672,1.5,1.5V62.5z"/>
			</g>
			<path fill="#0DBFBA" d="M33.504,2L33.504,2c0.866,0,1.392,0.701,1.392,1.568V62.43c0,0.867-0.614,1.57-1.48,1.57l0,0"/>
		</g>
	</g>
	<g>
		<g>
			<path fill="#1BCEB8" d="M3.465,21c-0.866,0-1.569-0.635-1.569-1.5l0,0c0-0.867,0.703-1.5,1.569-1.5h58.861
				c0.867,0,1.569,0.633,1.569,1.5l0,0c0,0.865-0.702,1.5-1.569,1.5H3.465z"/>
			<path fill="#0DBFBA" d="M63.896,19.322L63.896,19.322c0,0.865-0.702,1.678-1.569,1.678H3.465c-0.866,0-1.569-0.758-1.569-1.623
				l0,0"/>
		</g>
		<g>
			<path fill="#1BCEB8" d="M63.896,26.5c0,0.828-0.671,1.5-1.5,1.5h-59c-0.828,0-1.5-0.672-1.5-1.5l0,0c0-0.828,0.672-1.5,1.5-1.5
				h59C63.225,25,63.896,25.672,63.896,26.5L63.896,26.5z"/>
			<path fill="#0DBFBA" d="M63.896,26.27L63.896,26.27c0,0.867-0.702,1.73-1.569,1.73H3.465c-0.866,0-1.569-0.783-1.569-1.65l0,0"/>
		</g>
		<g>
			<path fill="#1BCEB8" d="M64.104,33.211c0,0.828-0.672,1.5-1.5,1.5h-59c-0.829,0-1.5-0.672-1.5-1.5l0,0c0-0.828,0.671-1.5,1.5-1.5
				h59C63.433,31.711,64.104,32.383,64.104,33.211L64.104,33.211z"/>
			<path fill="#0DBFBA" d="M64.104,32.98L64.104,32.98c0,0.867-0.702,1.73-1.569,1.73H3.674c-0.866,0-1.569-0.783-1.569-1.65l0,0"/>
		</g>
		<g>
			<path fill="#1BCEB8" d="M63.896,39.5c0,0.828-0.671,1.5-1.5,1.5h-59c-0.828,0-1.5-0.672-1.5-1.5l0,0c0-0.828,0.672-1.5,1.5-1.5
				h59C63.225,38,63.896,38.672,63.896,39.5L63.896,39.5z"/>
			<path fill="#0DBFBA" d="M63.896,39.662L63.896,39.662c0,0.867-0.702,1.338-1.569,1.338H3.465c-0.866,0-1.569-0.586-1.569-1.453
				l0,0"/>
		</g>
		<g>
			<path fill="#1BCEB8" d="M3.465,48c-0.866,0-1.569-0.633-1.569-1.5l0,0c0-0.865,0.703-1.5,1.569-1.5h58.861
				c0.867,0,1.569,0.635,1.569,1.5l0,0c0,0.867-0.702,1.5-1.569,1.5H3.465z"/>
			<path fill="#0DBFBA" d="M63.896,46.607L63.896,46.607c0,0.867-0.702,1.393-1.569,1.393H3.465c-0.866,0-1.569-0.613-1.569-1.48
				l0,0"/>
		</g>
	</g>
	<path fill="#363F3E" d="M52.896,49.708c0,1.818-1.474,3.292-3.293,3.292H17.188c-1.818,0-3.293-1.474-3.293-3.292V17.292
		c0-1.818,1.475-3.292,3.293-3.292h32.414c1.819,0,3.293,1.474,3.293,3.292V49.708z"/>
	<path d="M13.896,17.292c0-1.817,1.474-3.292,3.293-3.292h32.414c1.818,0,3.293,1.475,3.293,3.292v32.416
		c0,1.818-1.475,3.292-3.293,3.292"/>
	<path fill="#495150" d="M45.896,43.915c0,1.151-0.934,2.085-2.085,2.085H22.98c-1.151,0-2.085-0.934-2.085-2.085v-20.83
		c0-1.151,0.934-2.085,2.085-2.085h20.83c1.151,0,2.085,0.934,2.085,2.085V43.915z"/>
	<path fill="#393F3E" d="M20.896,23.085c0-1.151,0.933-2.085,2.085-2.085h20.83c1.151,0,2.085,0.934,2.085,2.085v20.83
		c0,1.151-0.934,2.085-2.085,2.085"/>
	<g>
		<path fill="#1BCEB8" d="M30.46,32.055c0.961-0.652,1.492-1.613,1.492-2.749c0-1.659-1.206-3.333-3.901-3.333
			c-1.404,0-2.725,0.51-3.41,1.013c-0.174,0.127-0.242,0.354-0.17,0.555l0.423,1.177c0.052,0.141,0.167,0.254,0.312,0.298
			c0.145,0.046,0.302,0.02,0.426-0.067c0.453-0.324,1.276-0.7,2.107-0.7c1.039,0,1.61,0.418,1.61,1.267
			c0,1.127-1.304,1.486-2.18,1.486h-0.9c-0.268,0-0.373,0.316-0.373,0.584v1.212c0,0.269,0.105,0.204,0.373,0.204h0.9
			c0.432,0,2.582,0.232,2.603,2.055c0.004,0.221-0.034,0.854-0.474,1.299c-0.385,0.394-0.971,0.628-1.743,0.628
			c-0.974,0-1.96-0.388-2.385-0.659c-0.124-0.081-0.28-0.092-0.418-0.041c-0.14,0.048-0.251,0.16-0.3,0.301l-0.441,1.251
			c-0.073,0.211,0.005,0.445,0.191,0.568c0.624,0.408,1.881,0.887,3.371,0.887c3.324,0,4.839-2.106,4.839-4.066
			C32.412,33.823,31.674,32.667,30.46,32.055z"/>
		<path fill="#0DBFBA" d="M31.952,29.306c0-1.659-1.206-3.333-3.901-3.333c-1.346,0-2.608,0.467-3.315,0.95l1.631,1.63
			c0.408-0.172,0.884-0.306,1.372-0.306c1.039,0,1.61,0.468,1.61,1.316c0,0.569-0.334,0.954-0.776,1.198l3.769,3.769
			c-0.203-1.083-0.875-1.97-1.881-2.476C31.421,31.402,31.952,30.441,31.952,29.306z"/>
		<path fill="#0DBFBA" d="M41.117,37h-4.166l0.093-0.197c2.416-2.328,4.264-4.358,4.264-6.815c0-1.971-1.28-3.987-4.141-3.987
			c-1.368,0-2.68,0.457-3.692,1.314c-0.166,0.14-0.219,0.364-0.13,0.563l0.515,1.136c0.062,0.138,0.187,0.236,0.333,0.27
			c0.151,0.034,0.303-0.005,0.419-0.101c0.402-0.335,1.227-0.899,2.226-0.899c1.251,0,1.886,0.623,1.886,1.844
			c-0.017,1.575-1.279,3.029-4.3,5.905l-1.324,1.231c-0.093,0.09-0.203,0.216-0.203,0.348v0.99c0,0.27,0.329,0.398,0.597,0.398
			h7.625c0.269,0,0.778-0.129,0.778-0.398v-1.34C41.896,36.994,41.386,37,41.117,37z"/>
	</g>
</g>
</svg>
