<?xml version="1.0" encoding="utf-8"?>
<!-- Generator: Adobe Illustrator 16.0.0, SVG Export Plug-In . SVG Version: 6.00 Build 0)  -->
<!DOCTYPE svg PUBLIC "-//W3C//DTD SVG 1.1//EN" "http://www.w3.org/Graphics/SVG/1.1/DTD/svg11.dtd">
<svg version="1.1" id="Layer_1" xmlns="http://www.w3.org/2000/svg" xmlns:xlink="http://www.w3.org/1999/xlink" x="0px" y="0px"
	 width="66px" height="66px" viewBox="0 0 66 66" enable-background="new 0 0 66 66" xml:space="preserve">
<g>
	<path fill="#0097F4" d="M56.855,25H45v-6.963C45,16.936,44.499,16,43.398,16H3.995C2.893,16,2,16.936,2,18.037v29.677
		C2,48.815,2.893,50,3.995,50h12.066l1.899,3.548c0.58,1.571,2.79,1.452,3.771,1.452h35.123C57.838,55,59,54.564,59,53.583V27.13
		C59,26.147,57.838,25,56.855,25z"/>
	<path fill="#0379DB" d="M21,55.002c0,0,0.444-0.002,0.732-0.002H43V16H21V55.002z"/>
	<g>
		<path fill="#717F7E" d="M55,9.873C55,11.048,54.049,12,52.875,12h-16.75C34.951,12,34,11.048,34,9.873V4.127
			C34,2.952,34.951,2,36.125,2h16.75C54.049,2,55,2.952,55,4.127V9.873z"/>
		<path fill="#616B6A" d="M36,2h16.969C54.144,2,55,3.03,55,4.204v5.981C55,11.36,54.144,12,52.969,12H36"/>
		<g>
			<path fill="#353F3E" d="M61,55.971C61,58.908,58.827,61,55.893,61H33.563C30.627,61,28,58.908,28,55.971V17.16
				c0-2.937,2.627-5.16,5.563-5.16h22.329C58.827,12,61,14.224,61,17.16V55.971z"/>
			<path fill="#1E2121" d="M28,17.16c0-2.937,2.627-5.16,5.563-5.16h22.329C58.827,12,61,14.224,61,17.16v38.811
				c0,2.938-2.277,5.356-5.211,5.356"/>
			<g>
				<path fill="#869392" d="M64,14.873C64,16.048,63.047,17,61.872,17H27.128C25.953,17,25,16.048,25,14.873V9.127
					C25,7.952,25.953,7,27.128,7h34.744C63.047,7,64,7.952,64,9.127V14.873z"/>
				<path fill="#717F7E" d="M64,14.789C64,15.964,63.047,17,61.872,17H27.128C25.952,17,25,16.049,25,14.873"/>
			</g>
			<g>
				<path fill="#869392" d="M64,61.873C64,63.047,63.047,64,61.872,64H27.128C25.953,64,25,63.047,25,61.873v-5.746
					C25,54.953,25.953,54,27.128,54h34.744C63.047,54,64,54.953,64,56.127V61.873z"/>
				<path fill="#717F7E" d="M25,56.127C25,54.953,25.952,54,27.128,54h34.744C63.047,54,64,54.953,64,56.127v5.667
					c0,1.175-0.953,2.04-2.128,2.04"/>
				<path fill="#717F7E" d="M64,61.833C64,63.008,63.047,64,61.872,64H27.128C25.952,64,25,63.047,25,61.873"/>
			</g>
		</g>
	</g>
	<g>
		<path fill="#0379DB" d="M11,32.43C11,33.297,10.297,34,9.43,34H7.57C6.703,34,6,33.297,6,32.43V23.57C6,22.703,6.703,22,7.57,22
			H9.43c0.867,0,1.57,0.703,1.57,1.57V32.43z"/>
		<path fill="#0379DB" d="M19,32.43c0,0.867-0.703,1.57-1.57,1.57H15.57C14.703,34,14,33.297,14,32.43V23.57
			c0-0.867,0.703-1.57,1.57-1.57h1.859c0.867,0,1.57,0.703,1.57,1.57V32.43z"/>
		<path fill="#FFFFFF" d="M11,31.429C11,32.297,10.297,33,9.43,33H7.57C6.703,33,6,32.297,6,31.429v-8.857
			C6,21.703,6.703,21,7.57,21H9.43c0.867,0,1.57,0.703,1.57,1.571V31.429z"/>
	</g>
	<g>
		<path fill="#FFFFFF" d="M19,31.705C19,32.573,18.097,33,17.23,33h-1.615C14.749,33,14,32.573,14,31.705v-9.132
			C14,21.707,14.898,21,15.765,21h1.466c0.866,0,1.77,0.707,1.77,1.573V31.705z"/>
	</g>
	<g>
		<path fill="#0097F4" d="M27,32.43c0,0.867-0.703,1.57-1.57,1.57H23.57C22.703,34,22,33.297,22,32.43V23.57
			c0-0.867,0.703-1.57,1.57-1.57h1.859c0.867,0,1.57,0.703,1.57,1.57V32.43z"/>
		<path fill="#FFFFFF" d="M27,31.429C27,32.297,26.297,33,25.43,33H23.57C22.703,33,22,32.297,22,31.429v-8.857
			C22,21.703,22.703,21,23.57,21h1.859c0.867,0,1.57,0.703,1.57,1.571V31.429z"/>
	</g>
	<circle fill="#0379DB" cx="5.322" cy="46.799" r="0.642"/>
	<circle fill="#0379DB" cx="8.316" cy="46.799" r="0.643"/>
	<circle fill="#0379DB" cx="11.309" cy="46.799" r="0.643"/>
	<circle fill="#0379DB" cx="14.302" cy="46.799" r="0.643"/>
	<circle fill="#0379DB" cx="17.294" cy="46.799" r="0.643"/>
	<circle fill="#0379DB" cx="20.287" cy="46.799" r="0.643"/>
</g>
</svg>
