<?xml version="1.0" encoding="utf-8"?>
<!-- Generator: Adobe Illustrator 16.0.0, SVG Export Plug-In . SVG Version: 6.00 Build 0)  -->
<!DOCTYPE svg PUBLIC "-//W3C//DTD SVG 1.1//EN" "http://www.w3.org/Graphics/SVG/1.1/DTD/svg11.dtd">
<svg version="1.1" id="Layer_1" xmlns="http://www.w3.org/2000/svg" xmlns:xlink="http://www.w3.org/1999/xlink" x="0px" y="0px"
	 width="66px" height="66px" viewBox="0 0 66 66" enable-background="new 0 0 66 66" xml:space="preserve">
<g>
	<g>
		<g>
			<g>
				<path fill="#FF7F00" d="M22.628,1c-7,1.504-12.466,10.369-12.466,21.117c0,10.746,5.466,14.391,12.466,14.961V1z"/>
			</g>
			<path fill="#FF4800" d="M22.628,1c7,1.504,12.467,10.369,12.467,21.117c0,10.746-5.467,14.391-12.467,14.961V1z"/>
		</g>
		<g>
			<g>
				<path fill="#FFBC00" d="M22.628,13.76c-4,0.967-8.055,6.699-8.055,13.646c0,6.949,4.055,9.305,8.055,9.672V13.76z"/>
			</g>
			<path fill="#FF7F00" d="M22.628,13.76c5,0.967,8.054,6.699,8.054,13.646c0,6.949-3.054,9.305-8.054,9.672V13.76z"/>
		</g>
	</g>
	<g>
		<path fill="#AD4831" d="M55.119,60.809c0.958,0.959,0.958,2.514-0.001,3.473l0,0c-0.958,0.959-2.512,0.959-3.471,0L23.256,35.891
			c-0.958-0.959-0.958-2.514,0-3.471l0,0c0.96-0.959,2.515-0.959,3.472,0L55.119,60.809z"/>
		<path fill="#893210" d="M23.256,32.42L23.256,32.42c0.96-0.959,2.515-0.959,3.472,0l28.392,28.389
			c0.958,0.959,0.958,2.514-0.001,3.473l0,0"/>
		<path fill="#3D3D3D" d="M17.431,34.527c-2.328-2.33-2.44-5.992-0.25-8.184c2.193-2.191,5.855-2.08,8.184,0.25
			c2.329,2.326,4.051,7.6,1.859,9.793C25.033,38.576,19.759,36.854,17.431,34.527z"/>
		<path d="M27.224,36.387c-2.19,2.189-7.465,0.467-9.793-1.859c-2.328-2.33-2.44-5.992-0.25-8.184"/>
	</g>
</g>
</svg>
