<?xml version="1.0" encoding="utf-8"?>
<!-- Generator: Adobe Illustrator 16.0.0, SVG Export Plug-In . SVG Version: 6.00 Build 0)  -->
<!DOCTYPE svg PUBLIC "-//W3C//DTD SVG 1.1//EN" "http://www.w3.org/Graphics/SVG/1.1/DTD/svg11.dtd">
<svg version="1.1" id="Layer_1" xmlns="http://www.w3.org/2000/svg" xmlns:xlink="http://www.w3.org/1999/xlink" x="0px" y="0px"
	 width="66px" height="66px" viewBox="0 0 66 66" enable-background="new 0 0 66 66" xml:space="preserve">
<g>
	<path fill="#EAE9DA" d="M61,52.354C61,59.338,55.16,64,48.176,64H18c-6.984,0-13-5.552-13-11.646V27.646
		C5,20.662,10.662,15,17.646,15h30.707C55.338,15,61,20.662,61,27.646V52.354z"/>
	<path fill="#CCCAB6" d="M18,15h30.176C55.161,15,61,20.166,61,27.15v24.66C61,58.795,55.161,64,48.176,64"/>
	<path fill="#EA8B18" d="M5,30v21.811C5,58.795,10.839,64,17.824,64h30.352C55.161,64,61,58.795,61,51.811V30H5z"/>
	<path fill="#D3750D" d="M18,64h30.176C55.161,64,61,58.795,61,51.811V30.312l-43.315-0.203"/>
	<path fill="#F7CA4D" d="M12,49.059c0,0.82-0.678,1.488-1.498,1.488l0,0C9.68,50.547,9,49.879,9,49.059V32.906
		c0-0.82,0.68-1.488,1.502-1.488l0,0c0.82,0,1.498,0.668,1.498,1.488V49.059z"/>
	<path fill="#FFFFFF" d="M12,27.244c0,0.82-0.678,1.488-1.498,1.488l0,0C9.68,28.732,9,28.064,9,27.244v-4.771
		c0-0.82,0.68-1.488,1.502-1.488l0,0c0.82,0,1.498,0.668,1.498,1.488V27.244z"/>
	<path fill="#F7CA4D" d="M12,54.855c0,0.82-0.678,1.486-1.498,1.486l0,0C9.68,56.342,9,55.676,9,54.855v-0.977
		c0-0.822,0.68-1.488,1.502-1.488l0,0c0.82,0,1.498,0.666,1.498,1.488V54.855z"/>
	<path fill="#239B02" d="M55.764,8.5c0,3.318-2.69,6.5-6.007,6.5H16.243c-3.316,0-6.007-3.182-6.007-6.5l0,0
		c0-3.316,2.69-6.5,6.007-6.5h33.514C53.073,2,55.764,5.184,55.764,8.5L55.764,8.5z"/>
	<path fill="#1A6000" d="M55.764,8.744L55.764,8.744c0,3.318-2.69,6.256-6.007,6.256H16.243c-3.316,0-6.007-2.813-6.007-6.132l0,0"
		/>
	<path fill="#CCCAB6" d="M56.606,3.51c0-0.961-0.779-1.51-1.739-1.51H11.134c-0.962,0-1.739,0.549-1.739,1.51
		c0,0.578,0.284,0.974,0.72,1.29c0.292,1.686,1.752,2.911,3.521,2.911c1.122,0,2.109-0.556,2.767-1.362
		c0.656,0.807,1.645,1.319,2.766,1.319c1.122,0,2.109-0.533,2.768-1.34c0.657,0.807,1.645,1.33,2.767,1.33
		c1.121,0,2.109-0.529,2.766-1.336c0.657,0.807,1.646,1.333,2.767,1.333s2.109-0.528,2.766-1.335
		c0.658,0.807,1.646,1.334,2.768,1.334s2.109-0.527,2.767-1.334c0.657,0.807,1.645,1.334,2.767,1.334
		c1.121,0,2.108-0.527,2.766-1.334c0.657,0.807,1.645,1.334,2.766,1.334c1.122,0,2.109-0.527,2.768-1.334
		c0.657,0.807,1.646,1.334,2.767,1.334c1.769,0,3.229-1.169,3.521-2.854C56.32,4.483,56.606,4.088,56.606,3.51z"/>
	<path fill="#BAB699" d="M54.867,2H33v4.424c0-0.037,0.021-0.064,0.052-0.104c0.658,0.807,1.62,1.334,2.741,1.334
		s2.096-0.527,2.754-1.334c0.656,0.807,1.638,1.334,2.76,1.334c1.121,0,2.104-0.527,2.762-1.334
		c0.657,0.807,1.644,1.334,2.765,1.334c1.122,0,2.108-0.527,2.767-1.334c0.657,0.807,1.645,1.334,2.766,1.334
		c1.77,0,3.229-1.283,3.521-2.969c0.434-0.316,0.72-0.598,0.72-1.176C56.606,2.549,55.827,2,54.867,2z"/>
	<rect x="5" y="30" fill="#C65E00" width="56" height="1"/>
	<polygon fill="#F9CA06" points="49,49.004 32.999,58.531 17,49.004 17,29.957 32.999,20.432 49,29.957 	"/>
	<polyline fill="#D3AB05" points="32.999,20.432 49,29.957 49,49.004 32.999,58.531 	"/>
	<polygon fill="#34B515" points="46,46.896 32.999,54.314 20,46.896 20,32.064 32.999,24.645 46,32.064 	"/>
	<polyline fill="#239B02" points="20,32.064 33.075,24.645 46,32.064 46,46.896 32.999,54.314 	"/>
	<g>
		<g>
			<polygon fill="#F9CA06" points="30,43 30,44.414 30.198,45 35.801,45 36,44.414 36,43 			"/>
			<polygon fill="#F9CA06" points="36,39 36,37.445 33,35.99 30,37.445 30,39 			"/>
			<rect x="30" y="40" fill="#D3AB05" width="6" height="2"/>
			<polygon fill="#D3AB05" points="31.46,46 32.999,47.418 34.54,46 			"/>
		</g>
		<g>
			<g>
				<polygon fill="#F9CA06" points="29,37.016 29,40.629 22.775,40.178 21.064,35.207 24.399,33.674 				"/>
				<polygon fill="#F9CA06" points="29,44.084 29,41.498 24.547,41.822 23.323,45.379 25.709,46.479 				"/>
			</g>
			<g>
				<polygon fill="#D3AB05" points="37,37.016 37,40.629 43.225,40.178 44.936,35.207 41.6,33.674 				"/>
				<polygon fill="#D3AB05" points="37,44.084 37,41.498 41.453,41.822 42.679,45.379 40.291,46.479 				"/>
			</g>
		</g>
	</g>
</g>
</svg>
